<svg width="40" height="40" viewBox="0 0 40 40" fill="none" xmlns="http://www.w3.org/2000/svg">
<path d="M0 6C0 2.68629 2.68629 0 6 0H34C37.3137 0 40 2.68629 40 6V34C40 37.3137 37.3137 40 34 40H6C2.68629 40 0 37.3137 0 34V6Z" fill="#E0FDEF"/>
<path d="M12.8567 7.50342C12.6199 7.50342 12.3928 7.59749 12.2254 7.76493C12.0579 7.93237 11.9639 8.15947 11.9639 8.39628V20.8927C11.9639 21.8399 12.3401 22.7483 13.0099 23.4181C13.6797 24.0879 14.5881 24.4641 15.5353 24.4641H16.4282V28.9284C16.4282 29.3972 16.5205 29.8614 16.6999 30.2945C16.8793 30.7276 17.1422 31.1211 17.4737 31.4525C17.8051 31.784 18.1987 32.0469 18.6318 32.2263C19.0648 32.4057 19.529 32.4981 19.9978 32.4981C20.4666 32.4981 20.9307 32.4057 21.3638 32.2263C21.7969 32.0469 22.1904 31.784 22.5219 31.4525C22.8534 31.1211 23.1163 30.7276 23.2957 30.2945C23.4751 29.8614 23.5674 29.3972 23.5674 28.9284V24.4641H24.4639C25.4111 24.4641 26.3195 24.0879 26.9892 23.4181C27.659 22.7483 28.0353 21.8399 28.0353 20.8927V8.39628C28.0353 8.15947 27.9412 7.93237 27.7738 7.76493C27.6063 7.59749 27.3792 7.50342 27.1424 7.50342H12.8567ZM26.2496 18.2141H13.7496V9.28913H19.1067V11.9713C19.1067 12.2081 19.2008 12.4352 19.3682 12.6026C19.5357 12.7701 19.7628 12.8641 19.9996 12.8641C20.2364 12.8641 20.4635 12.7701 20.6309 12.6026C20.7984 12.4352 20.8924 12.2081 20.8924 11.9713V9.28913H22.6782V13.7463C22.6782 13.9831 22.7722 14.2102 22.9397 14.3776C23.1071 14.5451 23.3342 14.6391 23.571 14.6391C23.8078 14.6391 24.0349 14.5451 24.2024 14.3776C24.3698 14.2102 24.4639 13.9831 24.4639 13.7463V9.28913H26.2496V18.2141ZM13.7496 20.8927V19.9998H26.2496V20.8927C26.2496 21.3663 26.0614 21.8205 25.7266 22.1554C25.3917 22.4903 24.9375 22.6784 24.4639 22.6784H22.6746C22.4378 22.6784 22.2107 22.7725 22.0432 22.9399C21.8758 23.1074 21.7817 23.3345 21.7817 23.5713V28.9284C21.7817 29.4015 21.5938 29.8553 21.2592 30.1898C20.9247 30.5244 20.4709 30.7123 19.9978 30.7123C19.5247 30.7123 19.0709 30.5244 18.7364 30.1898C18.4018 29.8553 18.2139 29.4015 18.2139 28.9284V23.5713C18.2139 23.3345 18.1198 23.1074 17.9524 22.9399C17.7849 22.7725 17.5578 22.6784 17.321 22.6784H15.5353C15.0617 22.6784 14.6075 22.4903 14.2726 22.1554C13.9377 21.8205 13.7496 21.3663 13.7496 20.8927Z" fill="#2FD887"/>
</svg>
