<svg width="40" height="40" viewBox="0 0 40 40" fill="none" xmlns="http://www.w3.org/2000/svg">
<path d="M0 6C0 2.68629 2.68629 0 6 0H34C37.3137 0 40 2.68629 40 6V34C40 37.3137 37.3137 40 34 40H6C2.68629 40 0 37.3137 0 34V6Z" fill="#EBF0FF"/>
<path d="M20.8923 19.1071C20.8923 18.3967 21.1745 17.7154 21.6768 17.213C22.1792 16.7107 22.8605 16.4285 23.5709 16.4285H26.2494C26.4862 16.4285 26.7133 16.5226 26.8808 16.69C27.0482 16.8575 27.1423 17.0846 27.1423 17.3214C27.1423 17.5582 27.0482 17.7853 26.8808 17.9527C26.7133 18.1201 26.4862 18.2142 26.2494 18.2142H23.5709C23.3341 18.2142 23.107 18.3083 22.9395 18.4757C22.7721 18.6432 22.678 18.8703 22.678 19.1071V19.9999C22.678 20.2367 22.7721 20.4638 22.9395 20.6313C23.107 20.7987 23.3341 20.8928 23.5709 20.8928H24.4637C25.1741 20.8928 25.8554 21.175 26.3578 21.6773C26.8601 22.1797 27.1423 22.861 27.1423 23.5714V24.4642C27.1423 25.1746 26.8601 25.8559 26.3578 26.3583C25.8554 26.8606 25.1741 27.1428 24.4637 27.1428H21.7852C21.5484 27.1428 21.3213 27.0487 21.1538 26.8813C20.9864 26.7138 20.8923 26.4867 20.8923 26.2499C20.8923 26.0131 20.9864 25.786 21.1538 25.6186C21.3213 25.4511 21.5484 25.3571 21.7852 25.3571H24.4637C24.7005 25.3571 24.9276 25.263 25.0951 25.0956C25.2625 24.9281 25.3566 24.701 25.3566 24.4642V23.5714C25.3566 23.3346 25.2625 23.1075 25.0951 22.94C24.9276 22.7726 24.7005 22.6785 24.4637 22.6785H23.5709C22.8605 22.6785 22.1792 22.3963 21.6768 21.894C21.1745 21.3916 20.8923 20.7103 20.8923 19.9999V19.1071ZM19.9994 17.3214C19.9994 17.0846 19.9054 16.8575 19.7379 16.69C19.5705 16.5226 19.3434 16.4285 19.1066 16.4285C18.8698 16.4285 18.6427 16.5226 18.4752 16.69C18.3078 16.8575 18.2137 17.0846 18.2137 17.3214V24.4642C18.2137 24.701 18.1197 24.9281 17.9522 25.0956C17.7848 25.263 17.5577 25.3571 17.3209 25.3571H15.5352C15.2984 25.3571 15.0713 25.4511 14.9038 25.6186C14.7364 25.786 14.6423 26.0131 14.6423 26.2499C14.6423 26.4867 14.7364 26.7138 14.9038 26.8813C15.0713 27.0487 15.2984 27.1428 15.5352 27.1428H17.3209C18.0313 27.1428 18.7126 26.8606 19.2149 26.3583C19.7172 25.8559 19.9994 25.1746 19.9994 24.4642V17.3214ZM9.28516 13.7499C9.28516 12.5659 9.7555 11.4304 10.5927 10.5932C11.4299 9.75599 12.5654 9.28564 13.7494 9.28564H26.2494C27.4334 9.28564 28.569 9.75599 29.4062 10.5932C30.2434 11.4304 30.7137 12.5659 30.7137 13.7499V26.2499C30.7137 27.4339 30.2434 28.5694 29.4062 29.4067C28.569 30.2439 27.4334 30.7142 26.2494 30.7142H13.7494C12.5654 30.7142 11.4299 30.2439 10.5927 29.4067C9.7555 28.5694 9.28516 27.4339 9.28516 26.2499V13.7499ZM13.7494 11.0714C13.039 11.0714 12.3577 11.3536 11.8554 11.8559C11.3531 12.3582 11.0709 13.0395 11.0709 13.7499V26.2499C11.0709 26.9603 11.3531 27.6416 11.8554 28.144C12.3577 28.6463 13.039 28.9285 13.7494 28.9285H26.2494C26.9598 28.9285 27.6411 28.6463 28.1435 28.144C28.6458 27.6416 28.928 26.9603 28.928 26.2499V13.7499C28.928 13.0395 28.6458 12.3582 28.1435 11.8559C27.6411 11.3536 26.9598 11.0714 26.2494 11.0714H13.7494Z" fill="#306AFF"/>
</svg>
